<mxfile host="app.diagrams.net" modified="2020-10-16T03:08:09.387Z" agent="5.0 (Macintosh; Intel Mac OS X 10_15_6) AppleWebKit/537.36 (KHTML, like Gecko) Chrome/85.0.4183.121 Safari/537.36" etag="8uf6bvpOCQ9_y1v660MW" version="13.8.0" type="github">
  <diagram id="FEgrCc_5TMVKnmyR5b6A" name="第 1 页">
    <mxGraphModel dx="1426" dy="707" grid="1" gridSize="10" guides="1" tooltips="1" connect="1" arrows="1" fold="1" page="1" pageScale="1" pageWidth="827" pageHeight="1169" math="0" shadow="0">
      <root>
        <mxCell id="0" />
        <mxCell id="1" parent="0" />
        <mxCell id="XGUBfzxo9XC4qldNjyQj-2" value="&lt;font style=&quot;font-size: 25px&quot;&gt;dhb/plugin/&lt;font color=&quot;#ff9999&quot;&gt;pluginname&lt;/font&gt;&lt;/font&gt;" style="text;html=1;align=center;verticalAlign=middle;resizable=0;points=[];autosize=1;" vertex="1" parent="1">
          <mxGeometry x="245" y="210" width="270" height="20" as="geometry" />
        </mxCell>
        <mxCell id="XGUBfzxo9XC4qldNjyQj-3" value="" style="shape=curlyBracket;whiteSpace=wrap;html=1;rounded=1;direction=south;" vertex="1" parent="1">
          <mxGeometry x="255" y="180" width="120" height="20" as="geometry" />
        </mxCell>
        <mxCell id="XGUBfzxo9XC4qldNjyQj-5" value="&lt;font color=&quot;#cc0000&quot;&gt;不可修改&lt;/font&gt;" style="text;html=1;align=center;verticalAlign=middle;resizable=0;points=[];autosize=1;" vertex="1" parent="1">
          <mxGeometry x="270" y="150" width="60" height="20" as="geometry" />
        </mxCell>
        <mxCell id="XGUBfzxo9XC4qldNjyQj-6" value="" style="shape=curlyBracket;whiteSpace=wrap;html=1;rounded=1;direction=north;" vertex="1" parent="1">
          <mxGeometry x="385" y="240" width="120" height="20" as="geometry" />
        </mxCell>
        <mxCell id="XGUBfzxo9XC4qldNjyQj-7" value="&lt;font color=&quot;#009900&quot;&gt;自定义的插件名称&lt;/font&gt;" style="text;html=1;align=center;verticalAlign=middle;resizable=0;points=[];autosize=1;" vertex="1" parent="1">
          <mxGeometry x="390" y="270" width="110" height="20" as="geometry" />
        </mxCell>
        <mxCell id="XGUBfzxo9XC4qldNjyQj-10" value="&lt;font style=&quot;font-size: 19px&quot;&gt;com.dhb.plugin.&lt;/font&gt;&lt;font color=&quot;#cc6600&quot; style=&quot;font-size: 18px&quot;&gt;DHBPlugin&lt;/font&gt;&lt;font color=&quot;#006600&quot; size=&quot;1&quot;&gt;&lt;b&gt;&lt;span style=&quot;font-size: 23px&quot;&gt;P&lt;/span&gt;&lt;/b&gt;&lt;/font&gt;&lt;span style=&quot;font-size: 18px&quot;&gt;luginname&lt;/span&gt;" style="text;html=1;align=center;verticalAlign=middle;resizable=0;points=[];autosize=1;" vertex="1" parent="1">
          <mxGeometry x="210" y="480" width="340" height="20" as="geometry" />
        </mxCell>
        <mxCell id="XGUBfzxo9XC4qldNjyQj-11" value="" style="shape=curlyBracket;whiteSpace=wrap;html=1;rounded=1;direction=south;" vertex="1" parent="1">
          <mxGeometry x="226" y="460" width="120" height="20" as="geometry" />
        </mxCell>
        <mxCell id="XGUBfzxo9XC4qldNjyQj-12" value="&lt;font color=&quot;#cc0000&quot;&gt;package 不可修改&lt;/font&gt;" style="text;html=1;align=center;verticalAlign=middle;resizable=0;points=[];autosize=1;" vertex="1" parent="1">
          <mxGeometry x="240" y="440" width="110" height="20" as="geometry" />
        </mxCell>
        <mxCell id="XGUBfzxo9XC4qldNjyQj-15" value="" style="shape=curlyBracket;whiteSpace=wrap;html=1;rounded=1;direction=north;" vertex="1" parent="1">
          <mxGeometry x="359" y="560" width="181" height="30" as="geometry" />
        </mxCell>
        <mxCell id="XGUBfzxo9XC4qldNjyQj-16" value="类名" style="text;html=1;align=center;verticalAlign=middle;resizable=0;points=[];autosize=1;" vertex="1" parent="1">
          <mxGeometry x="433" y="600" width="40" height="20" as="geometry" />
        </mxCell>
        <mxCell id="XGUBfzxo9XC4qldNjyQj-17" value="" style="shape=curlyBracket;whiteSpace=wrap;html=1;rounded=1;direction=north;" vertex="1" parent="1">
          <mxGeometry x="359" y="510" width="74" height="20" as="geometry" />
        </mxCell>
        <mxCell id="XGUBfzxo9XC4qldNjyQj-18" value="不可变" style="text;html=1;align=center;verticalAlign=middle;resizable=0;points=[];autosize=1;" vertex="1" parent="1">
          <mxGeometry x="369" y="530" width="50" height="20" as="geometry" />
        </mxCell>
        <mxCell id="XGUBfzxo9XC4qldNjyQj-19" value="" style="shape=curlyBracket;whiteSpace=wrap;html=1;rounded=1;direction=north;" vertex="1" parent="1">
          <mxGeometry x="441" y="510" width="109" height="20" as="geometry" />
        </mxCell>
        <mxCell id="XGUBfzxo9XC4qldNjyQj-20" value="对应的JS 插件名称&lt;br&gt;并且首字母大写" style="text;html=1;align=center;verticalAlign=middle;resizable=0;points=[];autosize=1;" vertex="1" parent="1">
          <mxGeometry x="435.5" y="530" width="120" height="30" as="geometry" />
        </mxCell>
      </root>
    </mxGraphModel>
  </diagram>
</mxfile>
